<?xml version="1.0" standalone="yes"?><svg xmlns="http://www.w3.org/2000/svg" version="1.1" width="270" height="270" viewBox="0 0 270 270" shape-rendering="crispEdges"><rect x="0" y="0" width="270" height="270" fill="#fff"/><path fill="#000" d="M24 24h6v6H24V24M30 24h6v6H30V24M36 24h6v6H36V24M42 24h6v6H42V24M48 24h6v6H48V24M54 24h6v6H54V24M60 24h6v6H60V24M84 24h6v6H84V24M96 24h6v6H96V24M108 24h6v6H108V24M120 24h6v6H120V24M126 24h6v6H126V24M132 24h6v6H132V24M138 24h6v6H138V24M150 24h6v6H150V24M156 24h6v6H156V24M174 24h6v6H174V24M204 24h6v6H204V24M210 24h6v6H210V24M216 24h6v6H216V24M222 24h6v6H222V24M228 24h6v6H228V24M234 24h6v6H234V24M240 24h6v6H240V24M24 30h6v6H24V30M60 30h6v6H60V30M72 30h6v6H72V30M78 30h6v6H78V30M84 30h6v6H84V30M96 30h6v6H96V30M108 30h6v6H108V30M114 30h6v6H114V30M132 30h6v6H132V30M138 30h6v6H138V30M168 30h6v6H168V30M174 30h6v6H174V30M192 30h6v6H192V30M204 30h6v6H204V30M240 30h6v6H240V30M24 36h6v6H24V36M36 36h6v6H36V36M42 36h6v6H42V36M48 36h6v6H48V36M60 36h6v6H60V36M72 36h6v6H72V36M78 36h6v6H78V36M84 36h6v6H84V36M114 36h6v6H114V36M138 36h6v6H138V36M144 36h6v6H144V36M150 36h6v6H150V36M180 36h6v6H180V36M192 36h6v6H192V36M204 36h6v6H204V36M216 36h6v6H216V36M222 36h6v6H222V36M228 36h6v6H228V36M240 36h6v6H240V36M24 42h6v6H24V42M36 42h6v6H36V42M42 42h6v6H42V42M48 42h6v6H48V42M60 42h6v6H60V42M72 42h6v6H72V42M84 42h6v6H84V42M90 42h6v6H90V42M102 42h6v6H102V42M108 42h6v6H108V42M120 42h6v6H120V42M126 42h6v6H126V42M138 42h6v6H138V42M144 42h6v6H144V42M150 42h6v6H150V42M162 42h6v6H162V42M174 42h6v6H174V42M186 42h6v6H186V42M192 42h6v6H192V42M204 42h6v6H204V42M216 42h6v6H216V42M222 42h6v6H222V42M228 42h6v6H228V42M240 42h6v6H240V42M24 48h6v6H24V48M36 48h6v6H36V48M42 48h6v6H42V48M48 48h6v6H48V48M60 48h6v6H60V48M84 48h6v6H84V48M102 48h6v6H102V48M114 48h6v6H114V48M120 48h6v6H120V48M132 48h6v6H132V48M138 48h6v6H138V48M144 48h6v6H144V48M162 48h6v6H162V48M192 48h6v6H192V48M204 48h6v6H204V48M216 48h6v6H216V48M222 48h6v6H222V48M228 48h6v6H228V48M240 48h6v6H240V48M24 54h6v6H24V54M60 54h6v6H60V54M78 54h6v6H78V54M84 54h6v6H84V54M90 54h6v6H90V54M96 54h6v6H96V54M120 54h6v6H120V54M132 54h6v6H132V54M174 54h6v6H174V54M204 54h6v6H204V54M240 54h6v6H240V54M24 60h6v6H24V60M30 60h6v6H30V60M36 60h6v6H36V60M42 60h6v6H42V60M48 60h6v6H48V60M54 60h6v6H54V60M60 60h6v6H60V60M72 60h6v6H72V60M84 60h6v6H84V60M96 60h6v6H96V60M108 60h6v6H108V60M120 60h6v6H120V60M132 60h6v6H132V60M144 60h6v6H144V60M156 60h6v6H156V60M168 60h6v6H168V60M180 60h6v6H180V60M192 60h6v6H192V60M204 60h6v6H204V60M210 60h6v6H210V60M216 60h6v6H216V60M222 60h6v6H222V60M228 60h6v6H228V60M234 60h6v6H234V60M240 60h6v6H240V60M72 66h6v6H72V66M78 66h6v6H78V66M90 66h6v6H90V66M138 66h6v6H138V66M144 66h6v6H144V66M156 66h6v6H156V66M162 66h6v6H162V66M180 66h6v6H180V66M186 66h6v6H186V66M192 66h6v6H192V66M24 72h6v6H24V72M60 72h6v6H60V72M72 72h6v6H72V72M84 72h6v6H84V72M96 72h6v6H96V72M102 72h6v6H102V72M132 72h6v6H132V72M156 72h6v6H156V72M162 72h6v6H162V72M168 72h6v6H168V72M174 72h6v6H174V72M180 72h6v6H180V72M198 72h6v6H198V72M204 72h6v6H204V72M222 72h6v6H222V72M228 72h6v6H228V72M234 72h6v6H234V72M36 78h6v6H36V78M42 78h6v6H42V78M48 78h6v6H48V78M54 78h6v6H54V78M72 78h6v6H72V78M84 78h6v6H84V78M90 78h6v6H90V78M96 78h6v6H96V78M144 78h6v6H144V78M150 78h6v6H150V78M156 78h6v6H156V78M162 78h6v6H162V78M174 78h6v6H174V78M180 78h6v6H180V78M186 78h6v6H186V78M192 78h6v6H192V78M216 78h6v6H216V78M222 78h6v6H222V78M234 78h6v6H234V78M24 84h6v6H24V84M36 84h6v6H36V84M60 84h6v6H60V84M66 84h6v6H66V84M72 84h6v6H72V84M90 84h6v6H90V84M102 84h6v6H102V84M108 84h6v6H108V84M126 84h6v6H126V84M132 84h6v6H132V84M156 84h6v6H156V84M174 84h6v6H174V84M180 84h6v6H180V84M186 84h6v6H186V84M198 84h6v6H198V84M204 84h6v6H204V84M216 84h6v6H216V84M228 84h6v6H228V84M234 84h6v6H234V84M240 84h6v6H240V84M24 90h6v6H24V90M54 90h6v6H54V90M66 90h6v6H66V90M72 90h6v6H72V90M78 90h6v6H78V90M84 90h6v6H84V90M96 90h6v6H96V90M114 90h6v6H114V90M120 90h6v6H120V90M138 90h6v6H138V90M144 90h6v6H144V90M156 90h6v6H156V90M162 90h6v6H162V90M168 90h6v6H168V90M180 90h6v6H180V90M192 90h6v6H192V90M198 90h6v6H198V90M210 90h6v6H210V90M216 90h6v6H216V90M222 90h6v6H222V90M240 90h6v6H240V90M24 96h6v6H24V96M30 96h6v6H30V96M42 96h6v6H42V96M48 96h6v6H48V96M60 96h6v6H60V96M78 96h6v6H78V96M84 96h6v6H84V96M90 96h6v6H90V96M96 96h6v6H96V96M102 96h6v6H102V96M120 96h6v6H120V96M138 96h6v6H138V96M162 96h6v6H162V96M168 96h6v6H168V96M186 96h6v6H186V96M192 96h6v6H192V96M204 96h6v6H204V96M210 96h6v6H210V96M222 96h6v6H222V96M240 96h6v6H240V96M30 102h6v6H30V102M42 102h6v6H42V102M66 102h6v6H66V102M72 102h6v6H72V102M78 102h6v6H78V102M84 102h6v6H84V102M96 102h6v6H96V102M108 102h6v6H108V102M114 102h6v6H114V102M126 102h6v6H126V102M132 102h6v6H132V102M138 102h6v6H138V102M144 102h6v6H144V102M162 102h6v6H162V102M174 102h6v6H174V102M186 102h6v6H186V102M210 102h6v6H210V102M222 102h6v6H222V102M30 108h6v6H30V108M36 108h6v6H36V108M42 108h6v6H42V108M54 108h6v6H54V108M60 108h6v6H60V108M66 108h6v6H66V108M78 108h6v6H78V108M90 108h6v6H90V108M96 108h6v6H96V108M102 108h6v6H102V108M114 108h6v6H114V108M120 108h6v6H120V108M126 108h6v6H126V108M144 108h6v6H144V108M150 108h6v6H150V108M156 108h6v6H156V108M168 108h6v6H168V108M180 108h6v6H180V108M186 108h6v6H186V108M198 108h6v6H198V108M210 108h6v6H210V108M216 108h6v6H216V108M222 108h6v6H222V108M234 108h6v6H234V108M240 108h6v6H240V108M48 114h6v6H48V114M54 114h6v6H54V114M72 114h6v6H72V114M78 114h6v6H78V114M84 114h6v6H84V114M108 114h6v6H108V114M114 114h6v6H114V114M120 114h6v6H120V114M126 114h6v6H126V114M132 114h6v6H132V114M138 114h6v6H138V114M156 114h6v6H156V114M162 114h6v6H162V114M168 114h6v6H168V114M180 114h6v6H180V114M186 114h6v6H186V114M192 114h6v6H192V114M198 114h6v6H198V114M210 114h6v6H210V114M222 114h6v6H222V114M228 114h6v6H228V114M240 114h6v6H240V114M30 120h6v6H30V120M36 120h6v6H36V120M42 120h6v6H42V120M60 120h6v6H60V120M72 120h6v6H72V120M90 120h6v6H90V120M108 120h6v6H108V120M114 120h6v6H114V120M120 120h6v6H120V120M138 120h6v6H138V120M156 120h6v6H156V120M174 120h6v6H174V120M180 120h6v6H180V120M186 120h6v6H186V120M198 120h6v6H198V120M204 120h6v6H204V120M216 120h6v6H216V120M228 120h6v6H228V120M234 120h6v6H234V120M24 126h6v6H24V126M36 126h6v6H36V126M42 126h6v6H42V126M54 126h6v6H54V126M66 126h6v6H66V126M72 126h6v6H72V126M84 126h6v6H84V126M90 126h6v6H90V126M96 126h6v6H96V126M102 126h6v6H102V126M108 126h6v6H108V126M132 126h6v6H132V126M138 126h6v6H138V126M144 126h6v6H144V126M150 126h6v6H150V126M162 126h6v6H162V126M174 126h6v6H174V126M186 126h6v6H186V126M192 126h6v6H192V126M210 126h6v6H210V126M234 126h6v6H234V126M36 132h6v6H36V132M48 132h6v6H48V132M54 132h6v6H54V132M60 132h6v6H60V132M84 132h6v6H84V132M96 132h6v6H96V132M102 132h6v6H102V132M114 132h6v6H114V132M126 132h6v6H126V132M132 132h6v6H132V132M138 132h6v6H138V132M144 132h6v6H144V132M150 132h6v6H150V132M162 132h6v6H162V132M174 132h6v6H174V132M186 132h6v6H186V132M192 132h6v6H192V132M198 132h6v6H198V132M216 132h6v6H216V132M222 132h6v6H222V132M240 132h6v6H240V132M24 138h6v6H24V138M48 138h6v6H48V138M66 138h6v6H66V138M84 138h6v6H84V138M96 138h6v6H96V138M102 138h6v6H102V138M144 138h6v6H144V138M162 138h6v6H162V138M180 138h6v6H180V138M192 138h6v6H192V138M198 138h6v6H198V138M204 138h6v6H204V138M216 138h6v6H216V138M240 138h6v6H240V138M24 144h6v6H24V144M60 144h6v6H60V144M66 144h6v6H66V144M72 144h6v6H72V144M84 144h6v6H84V144M90 144h6v6H90V144M96 144h6v6H96V144M102 144h6v6H102V144M114 144h6v6H114V144M120 144h6v6H120V144M126 144h6v6H126V144M156 144h6v6H156V144M162 144h6v6H162V144M174 144h6v6H174V144M198 144h6v6H198V144M204 144h6v6H204V144M216 144h6v6H216V144M222 144h6v6H222V144M228 144h6v6H228V144M36 150h6v6H36V150M42 150h6v6H42V150M48 150h6v6H48V150M54 150h6v6H54V150M90 150h6v6H90V150M96 150h6v6H96V150M102 150h6v6H102V150M132 150h6v6H132V150M138 150h6v6H138V150M156 150h6v6H156V150M162 150h6v6H162V150M174 150h6v6H174V150M180 150h6v6H180V150M186 150h6v6H186V150M198 150h6v6H198V150M216 150h6v6H216V150M228 150h6v6H228V150M24 156h6v6H24V156M36 156h6v6H36V156M54 156h6v6H54V156M60 156h6v6H60V156M84 156h6v6H84V156M108 156h6v6H108V156M114 156h6v6H114V156M120 156h6v6H120V156M132 156h6v6H132V156M150 156h6v6H150V156M156 156h6v6H156V156M186 156h6v6H186V156M192 156h6v6H192V156M204 156h6v6H204V156M210 156h6v6H210V156M216 156h6v6H216V156M222 156h6v6H222V156M234 156h6v6H234V156M240 156h6v6H240V156M30 162h6v6H30V162M48 162h6v6H48V162M54 162h6v6H54V162M66 162h6v6H66V162M72 162h6v6H72V162M78 162h6v6H78V162M84 162h6v6H84V162M102 162h6v6H102V162M138 162h6v6H138V162M144 162h6v6H144V162M156 162h6v6H156V162M162 162h6v6H162V162M180 162h6v6H180V162M192 162h6v6H192V162M210 162h6v6H210V162M216 162h6v6H216V162M222 162h6v6H222V162M24 168h6v6H24V168M30 168h6v6H30V168M42 168h6v6H42V168M60 168h6v6H60V168M66 168h6v6H66V168M72 168h6v6H72V168M84 168h6v6H84V168M90 168h6v6H90V168M120 168h6v6H120V168M126 168h6v6H126V168M132 168h6v6H132V168M144 168h6v6H144V168M168 168h6v6H168V168M186 168h6v6H186V168M192 168h6v6H192V168M204 168h6v6H204V168M210 168h6v6H210V168M234 168h6v6H234V168M240 168h6v6H240V168M24 174h6v6H24V174M30 174h6v6H30V174M36 174h6v6H36V174M48 174h6v6H48V174M66 174h6v6H66V174M90 174h6v6H90V174M96 174h6v6H96V174M102 174h6v6H102V174M108 174h6v6H108V174M120 174h6v6H120V174M126 174h6v6H126V174M138 174h6v6H138V174M144 174h6v6H144V174M150 174h6v6H150V174M156 174h6v6H156V174M162 174h6v6H162V174M168 174h6v6H168V174M174 174h6v6H174V174M186 174h6v6H186V174M192 174h6v6H192V174M198 174h6v6H198V174M210 174h6v6H210V174M222 174h6v6H222V174M228 174h6v6H228V174M24 180h6v6H24V180M42 180h6v6H42V180M60 180h6v6H60V180M72 180h6v6H72V180M78 180h6v6H78V180M126 180h6v6H126V180M150 180h6v6H150V180M174 180h6v6H174V180M180 180h6v6H180V180M186 180h6v6H186V180M192 180h6v6H192V180M198 180h6v6H198V180M204 180h6v6H204V180M210 180h6v6H210V180M228 180h6v6H228V180M234 180h6v6H234V180M240 180h6v6H240V180M24 186h6v6H24V186M42 186h6v6H42V186M54 186h6v6H54V186M78 186h6v6H78V186M96 186h6v6H96V186M102 186h6v6H102V186M108 186h6v6H108V186M114 186h6v6H114V186M144 186h6v6H144V186M162 186h6v6H162V186M168 186h6v6H168V186M192 186h6v6H192V186M204 186h6v6H204V186M216 186h6v6H216V186M222 186h6v6H222V186M228 186h6v6H228V186M234 186h6v6H234V186M24 192h6v6H24V192M36 192h6v6H36V192M42 192h6v6H42V192M54 192h6v6H54V192M60 192h6v6H60V192M66 192h6v6H66V192M72 192h6v6H72V192M78 192h6v6H78V192M84 192h6v6H84V192M90 192h6v6H90V192M126 192h6v6H126V192M132 192h6v6H132V192M168 192h6v6H168V192M174 192h6v6H174V192M180 192h6v6H180V192M192 192h6v6H192V192M198 192h6v6H198V192M204 192h6v6H204V192M210 192h6v6H210V192M216 192h6v6H216V192M222 192h6v6H222V192M228 192h6v6H228V192M72 198h6v6H72V198M78 198h6v6H78V198M90 198h6v6H90V198M108 198h6v6H108V198M120 198h6v6H120V198M126 198h6v6H126V198M132 198h6v6H132V198M138 198h6v6H138V198M144 198h6v6H144V198M162 198h6v6H162V198M180 198h6v6H180V198M186 198h6v6H186V198M192 198h6v6H192V198M216 198h6v6H216V198M24 204h6v6H24V204M30 204h6v6H30V204M36 204h6v6H36V204M42 204h6v6H42V204M48 204h6v6H48V204M54 204h6v6H54V204M60 204h6v6H60V204M96 204h6v6H96V204M114 204h6v6H114V204M138 204h6v6H138V204M156 204h6v6H156V204M162 204h6v6H162V204M168 204h6v6H168V204M174 204h6v6H174V204M192 204h6v6H192V204M204 204h6v6H204V204M216 204h6v6H216V204M240 204h6v6H240V204M24 210h6v6H24V210M60 210h6v6H60V210M90 210h6v6H90V210M96 210h6v6H96V210M108 210h6v6H108V210M114 210h6v6H114V210M126 210h6v6H126V210M132 210h6v6H132V210M156 210h6v6H156V210M186 210h6v6H186V210M192 210h6v6H192V210M216 210h6v6H216V210M234 210h6v6H234V210M24 216h6v6H24V216M36 216h6v6H36V216M42 216h6v6H42V216M48 216h6v6H48V216M60 216h6v6H60V216M84 216h6v6H84V216M90 216h6v6H90V216M96 216h6v6H96V216M102 216h6v6H102V216M114 216h6v6H114V216M120 216h6v6H120V216M138 216h6v6H138V216M144 216h6v6H144V216M174 216h6v6H174V216M180 216h6v6H180V216M186 216h6v6H186V216M192 216h6v6H192V216M198 216h6v6H198V216M204 216h6v6H204V216M210 216h6v6H210V216M216 216h6v6H216V216M228 216h6v6H228V216M234 216h6v6H234V216M24 222h6v6H24V222M36 222h6v6H36V222M42 222h6v6H42V222M48 222h6v6H48V222M60 222h6v6H60V222M78 222h6v6H78V222M84 222h6v6H84V222M90 222h6v6H90V222M96 222h6v6H96V222M102 222h6v6H102V222M108 222h6v6H108V222M120 222h6v6H120V222M126 222h6v6H126V222M132 222h6v6H132V222M138 222h6v6H138V222M150 222h6v6H150V222M156 222h6v6H156V222M162 222h6v6H162V222M180 222h6v6H180V222M192 222h6v6H192V222M198 222h6v6H198V222M204 222h6v6H204V222M222 222h6v6H222V222M240 222h6v6H240V222M24 228h6v6H24V228M36 228h6v6H36V228M42 228h6v6H42V228M48 228h6v6H48V228M60 228h6v6H60V228M78 228h6v6H78V228M84 228h6v6H84V228M102 228h6v6H102V228M108 228h6v6H108V228M114 228h6v6H114V228M120 228h6v6H120V228M156 228h6v6H156V228M174 228h6v6H174V228M186 228h6v6H186V228M192 228h6v6H192V228M234 228h6v6H234V228M240 228h6v6H240V228M24 234h6v6H24V234M60 234h6v6H60V234M78 234h6v6H78V234M96 234h6v6H96V234M102 234h6v6H102V234M138 234h6v6H138V234M144 234h6v6H144V234M156 234h6v6H156V234M180 234h6v6H180V234M192 234h6v6H192V234M198 234h6v6H198V234M204 234h6v6H204V234M216 234h6v6H216V234M222 234h6v6H222V234M240 234h6v6H240V234M24 240h6v6H24V240M30 240h6v6H30V240M36 240h6v6H36V240M42 240h6v6H42V240M48 240h6v6H48V240M54 240h6v6H54V240M60 240h6v6H60V240M72 240h6v6H72V240M108 240h6v6H108V240M114 240h6v6H114V240M120 240h6v6H120V240M126 240h6v6H126V240M144 240h6v6H144V240M150 240h6v6H150V240M162 240h6v6H162V240M192 240h6v6H192V240M204 240h6v6H204V240M210 240h6v6H210V240M222 240h6v6H222V240M240 240h6v6H240V240"/></svg>
