<?xml version="1.0" standalone="yes"?><svg xmlns="http://www.w3.org/2000/svg" version="1.1" width="270" height="270" viewBox="0 0 270 270" shape-rendering="crispEdges"><rect x="0" y="0" width="270" height="270" fill="#fff"/><path fill="#000" d="M24 24h6v6H24V24M30 24h6v6H30V24M36 24h6v6H36V24M42 24h6v6H42V24M48 24h6v6H48V24M54 24h6v6H54V24M60 24h6v6H60V24M78 24h6v6H78V24M84 24h6v6H84V24M90 24h6v6H90V24M96 24h6v6H96V24M114 24h6v6H114V24M120 24h6v6H120V24M132 24h6v6H132V24M138 24h6v6H138V24M144 24h6v6H144V24M150 24h6v6H150V24M156 24h6v6H156V24M162 24h6v6H162V24M192 24h6v6H192V24M204 24h6v6H204V24M210 24h6v6H210V24M216 24h6v6H216V24M222 24h6v6H222V24M228 24h6v6H228V24M234 24h6v6H234V24M240 24h6v6H240V24M24 30h6v6H24V30M60 30h6v6H60V30M102 30h6v6H102V30M120 30h6v6H120V30M132 30h6v6H132V30M150 30h6v6H150V30M174 30h6v6H174V30M186 30h6v6H186V30M204 30h6v6H204V30M240 30h6v6H240V30M24 36h6v6H24V36M36 36h6v6H36V36M42 36h6v6H42V36M48 36h6v6H48V36M60 36h6v6H60V36M72 36h6v6H72V36M78 36h6v6H78V36M96 36h6v6H96V36M102 36h6v6H102V36M114 36h6v6H114V36M120 36h6v6H120V36M144 36h6v6H144V36M150 36h6v6H150V36M162 36h6v6H162V36M180 36h6v6H180V36M186 36h6v6H186V36M192 36h6v6H192V36M204 36h6v6H204V36M216 36h6v6H216V36M222 36h6v6H222V36M228 36h6v6H228V36M240 36h6v6H240V36M24 42h6v6H24V42M36 42h6v6H36V42M42 42h6v6H42V42M48 42h6v6H48V42M60 42h6v6H60V42M72 42h6v6H72V42M84 42h6v6H84V42M102 42h6v6H102V42M108 42h6v6H108V42M120 42h6v6H120V42M126 42h6v6H126V42M156 42h6v6H156V42M162 42h6v6H162V42M174 42h6v6H174V42M180 42h6v6H180V42M204 42h6v6H204V42M216 42h6v6H216V42M222 42h6v6H222V42M228 42h6v6H228V42M240 42h6v6H240V42M24 48h6v6H24V48M36 48h6v6H36V48M42 48h6v6H42V48M48 48h6v6H48V48M60 48h6v6H60V48M72 48h6v6H72V48M78 48h6v6H78V48M84 48h6v6H84V48M108 48h6v6H108V48M132 48h6v6H132V48M138 48h6v6H138V48M144 48h6v6H144V48M150 48h6v6H150V48M162 48h6v6H162V48M192 48h6v6H192V48M204 48h6v6H204V48M216 48h6v6H216V48M222 48h6v6H222V48M228 48h6v6H228V48M240 48h6v6H240V48M24 54h6v6H24V54M60 54h6v6H60V54M72 54h6v6H72V54M84 54h6v6H84V54M90 54h6v6H90V54M96 54h6v6H96V54M108 54h6v6H108V54M126 54h6v6H126V54M180 54h6v6H180V54M186 54h6v6H186V54M204 54h6v6H204V54M240 54h6v6H240V54M24 60h6v6H24V60M30 60h6v6H30V60M36 60h6v6H36V60M42 60h6v6H42V60M48 60h6v6H48V60M54 60h6v6H54V60M60 60h6v6H60V60M72 60h6v6H72V60M84 60h6v6H84V60M96 60h6v6H96V60M108 60h6v6H108V60M120 60h6v6H120V60M132 60h6v6H132V60M144 60h6v6H144V60M156 60h6v6H156V60M168 60h6v6H168V60M180 60h6v6H180V60M192 60h6v6H192V60M204 60h6v6H204V60M210 60h6v6H210V60M216 60h6v6H216V60M222 60h6v6H222V60M228 60h6v6H228V60M234 60h6v6H234V60M240 60h6v6H240V60M72 66h6v6H72V66M84 66h6v6H84V66M96 66h6v6H96V66M102 66h6v6H102V66M114 66h6v6H114V66M132 66h6v6H132V66M138 66h6v6H138V66M144 66h6v6H144V66M150 66h6v6H150V66M156 66h6v6H156V66M162 66h6v6H162V66M192 66h6v6H192V66M24 72h6v6H24V72M36 72h6v6H36V72M42 72h6v6H42V72M48 72h6v6H48V72M54 72h6v6H54V72M60 72h6v6H60V72M78 72h6v6H78V72M96 72h6v6H96V72M114 72h6v6H114V72M132 72h6v6H132V72M156 72h6v6H156V72M162 72h6v6H162V72M168 72h6v6H168V72M174 72h6v6H174V72M204 72h6v6H204V72M210 72h6v6H210V72M216 72h6v6H216V72M222 72h6v6H222V72M228 72h6v6H228V72M24 78h6v6H24V78M30 78h6v6H30V78M42 78h6v6H42V78M54 78h6v6H54V78M78 78h6v6H78V78M84 78h6v6H84V78M96 78h6v6H96V78M114 78h6v6H114V78M120 78h6v6H120V78M132 78h6v6H132V78M138 78h6v6H138V78M144 78h6v6H144V78M162 78h6v6H162V78M168 78h6v6H168V78M174 78h6v6H174V78M192 78h6v6H192V78M210 78h6v6H210V78M234 78h6v6H234V78M24 84h6v6H24V84M48 84h6v6H48V84M60 84h6v6H60V84M72 84h6v6H72V84M90 84h6v6H90V84M96 84h6v6H96V84M102 84h6v6H102V84M126 84h6v6H126V84M132 84h6v6H132V84M156 84h6v6H156V84M174 84h6v6H174V84M180 84h6v6H180V84M186 84h6v6H186V84M192 84h6v6H192V84M198 84h6v6H198V84M204 84h6v6H204V84M234 84h6v6H234V84M240 84h6v6H240V84M24 90h6v6H24V90M30 90h6v6H30V90M36 90h6v6H36V90M42 90h6v6H42V90M54 90h6v6H54V90M72 90h6v6H72V90M78 90h6v6H78V90M84 90h6v6H84V90M90 90h6v6H90V90M102 90h6v6H102V90M108 90h6v6H108V90M120 90h6v6H120V90M150 90h6v6H150V90M156 90h6v6H156V90M162 90h6v6H162V90M168 90h6v6H168V90M180 90h6v6H180V90M186 90h6v6H186V90M198 90h6v6H198V90M210 90h6v6H210V90M240 90h6v6H240V90M24 96h6v6H24V96M42 96h6v6H42V96M60 96h6v6H60V96M72 96h6v6H72V96M84 96h6v6H84V96M90 96h6v6H90V96M108 96h6v6H108V96M126 96h6v6H126V96M144 96h6v6H144V96M156 96h6v6H156V96M168 96h6v6H168V96M174 96h6v6H174V96M180 96h6v6H180V96M198 96h6v6H198V96M204 96h6v6H204V96M216 96h6v6H216V96M222 96h6v6H222V96M228 96h6v6H228V96M234 96h6v6H234V96M240 96h6v6H240V96M24 102h6v6H24V102M36 102h6v6H36V102M42 102h6v6H42V102M48 102h6v6H48V102M72 102h6v6H72V102M78 102h6v6H78V102M84 102h6v6H84V102M96 102h6v6H96V102M126 102h6v6H126V102M132 102h6v6H132V102M138 102h6v6H138V102M144 102h6v6H144V102M162 102h6v6H162V102M174 102h6v6H174V102M210 102h6v6H210V102M30 108h6v6H30V108M48 108h6v6H48V108M60 108h6v6H60V108M66 108h6v6H66V108M78 108h6v6H78V108M90 108h6v6H90V108M96 108h6v6H96V108M102 108h6v6H102V108M108 108h6v6H108V108M114 108h6v6H114V108M120 108h6v6H120V108M126 108h6v6H126V108M144 108h6v6H144V108M150 108h6v6H150V108M156 108h6v6H156V108M168 108h6v6H168V108M174 108h6v6H174V108M180 108h6v6H180V108M186 108h6v6H186V108M198 108h6v6H198V108M204 108h6v6H204V108M210 108h6v6H210V108M216 108h6v6H216V108M222 108h6v6H222V108M234 108h6v6H234V108M240 108h6v6H240V108M24 114h6v6H24V114M54 114h6v6H54V114M72 114h6v6H72V114M90 114h6v6H90V114M96 114h6v6H96V114M102 114h6v6H102V114M108 114h6v6H108V114M126 114h6v6H126V114M132 114h6v6H132V114M138 114h6v6H138V114M144 114h6v6H144V114M150 114h6v6H150V114M162 114h6v6H162V114M168 114h6v6H168V114M180 114h6v6H180V114M198 114h6v6H198V114M204 114h6v6H204V114M210 114h6v6H210V114M216 114h6v6H216V114M30 120h6v6H30V120M42 120h6v6H42V120M48 120h6v6H48V120M60 120h6v6H60V120M78 120h6v6H78V120M84 120h6v6H84V120M96 120h6v6H96V120M108 120h6v6H108V120M114 120h6v6H114V120M120 120h6v6H120V120M138 120h6v6H138V120M144 120h6v6H144V120M156 120h6v6H156V120M174 120h6v6H174V120M180 120h6v6H180V120M186 120h6v6H186V120M198 120h6v6H198V120M204 120h6v6H204V120M210 120h6v6H210V120M216 120h6v6H216V120M228 120h6v6H228V120M240 120h6v6H240V120M36 126h6v6H36V126M48 126h6v6H48V126M54 126h6v6H54V126M66 126h6v6H66V126M78 126h6v6H78V126M90 126h6v6H90V126M108 126h6v6H108V126M114 126h6v6H114V126M132 126h6v6H132V126M138 126h6v6H138V126M144 126h6v6H144V126M162 126h6v6H162V126M174 126h6v6H174V126M180 126h6v6H180V126M192 126h6v6H192V126M198 126h6v6H198V126M210 126h6v6H210V126M234 126h6v6H234V126M30 132h6v6H30V132M42 132h6v6H42V132M48 132h6v6H48V132M60 132h6v6H60V132M84 132h6v6H84V132M108 132h6v6H108V132M114 132h6v6H114V132M120 132h6v6H120V132M132 132h6v6H132V132M150 132h6v6H150V132M156 132h6v6H156V132M180 132h6v6H180V132M186 132h6v6H186V132M192 132h6v6H192V132M210 132h6v6H210V132M216 132h6v6H216V132M234 132h6v6H234V132M240 132h6v6H240V132M24 138h6v6H24V138M30 138h6v6H30V138M42 138h6v6H42V138M72 138h6v6H72V138M78 138h6v6H78V138M90 138h6v6H90V138M96 138h6v6H96V138M102 138h6v6H102V138M108 138h6v6H108V138M114 138h6v6H114V138M138 138h6v6H138V138M144 138h6v6H144V138M150 138h6v6H150V138M180 138h6v6H180V138M186 138h6v6H186V138M192 138h6v6H192V138M198 138h6v6H198V138M204 138h6v6H204V138M222 138h6v6H222V138M240 138h6v6H240V138M30 144h6v6H30V144M42 144h6v6H42V144M60 144h6v6H60V144M96 144h6v6H96V144M102 144h6v6H102V144M108 144h6v6H108V144M114 144h6v6H114V144M120 144h6v6H120V144M126 144h6v6H126V144M138 144h6v6H138V144M156 144h6v6H156V144M174 144h6v6H174V144M186 144h6v6H186V144M198 144h6v6H198V144M204 144h6v6H204V144M216 144h6v6H216V144M222 144h6v6H222V144M228 144h6v6H228V144M24 150h6v6H24V150M54 150h6v6H54V150M66 150h6v6H66V150M72 150h6v6H72V150M90 150h6v6H90V150M96 150h6v6H96V150M102 150h6v6H102V150M114 150h6v6H114V150M120 150h6v6H120V150M132 150h6v6H132V150M138 150h6v6H138V150M144 150h6v6H144V150M162 150h6v6H162V150M192 150h6v6H192V150M198 150h6v6H198V150M222 150h6v6H222V150M234 150h6v6H234V150M24 156h6v6H24V156M54 156h6v6H54V156M60 156h6v6H60V156M66 156h6v6H66V156M72 156h6v6H72V156M90 156h6v6H90V156M102 156h6v6H102V156M108 156h6v6H108V156M114 156h6v6H114V156M120 156h6v6H120V156M132 156h6v6H132V156M150 156h6v6H150V156M174 156h6v6H174V156M186 156h6v6H186V156M192 156h6v6H192V156M204 156h6v6H204V156M210 156h6v6H210V156M216 156h6v6H216V156M222 156h6v6H222V156M234 156h6v6H234V156M240 156h6v6H240V156M24 162h6v6H24V162M30 162h6v6H30V162M42 162h6v6H42V162M48 162h6v6H48V162M54 162h6v6H54V162M66 162h6v6H66V162M78 162h6v6H78V162M84 162h6v6H84V162M96 162h6v6H96V162M108 162h6v6H108V162M114 162h6v6H114V162M138 162h6v6H138V162M144 162h6v6H144V162M150 162h6v6H150V162M156 162h6v6H156V162M162 162h6v6H162V162M180 162h6v6H180V162M186 162h6v6H186V162M192 162h6v6H192V162M210 162h6v6H210V162M216 162h6v6H216V162M240 162h6v6H240V162M24 168h6v6H24V168M30 168h6v6H30V168M42 168h6v6H42V168M48 168h6v6H48V168M60 168h6v6H60V168M72 168h6v6H72V168M78 168h6v6H78V168M90 168h6v6H90V168M96 168h6v6H96V168M102 168h6v6H102V168M108 168h6v6H108V168M132 168h6v6H132V168M138 168h6v6H138V168M156 168h6v6H156V168M162 168h6v6H162V168M168 168h6v6H168V168M174 168h6v6H174V168M180 168h6v6H180V168M186 168h6v6H186V168M192 168h6v6H192V168M204 168h6v6H204V168M210 168h6v6H210V168M216 168h6v6H216V168M228 168h6v6H228V168M234 168h6v6H234V168M240 168h6v6H240V168M24 174h6v6H24V174M30 174h6v6H30V174M48 174h6v6H48V174M54 174h6v6H54V174M72 174h6v6H72V174M78 174h6v6H78V174M90 174h6v6H90V174M114 174h6v6H114V174M120 174h6v6H120V174M126 174h6v6H126V174M138 174h6v6H138V174M162 174h6v6H162V174M174 174h6v6H174V174M192 174h6v6H192V174M210 174h6v6H210V174M228 174h6v6H228V174M24 180h6v6H24V180M48 180h6v6H48V180M54 180h6v6H54V180M60 180h6v6H60V180M72 180h6v6H72V180M78 180h6v6H78V180M96 180h6v6H96V180M126 180h6v6H126V180M144 180h6v6H144V180M150 180h6v6H150V180M168 180h6v6H168V180M174 180h6v6H174V180M180 180h6v6H180V180M186 180h6v6H186V180M198 180h6v6H198V180M204 180h6v6H204V180M210 180h6v6H210V180M228 180h6v6H228V180M234 180h6v6H234V180M240 180h6v6H240V180M24 186h6v6H24V186M36 186h6v6H36V186M48 186h6v6H48V186M78 186h6v6H78V186M84 186h6v6H84V186M96 186h6v6H96V186M120 186h6v6H120V186M138 186h6v6H138V186M150 186h6v6H150V186M156 186h6v6H156V186M180 186h6v6H180V186M204 186h6v6H204V186M234 186h6v6H234V186M240 186h6v6H240V186M24 192h6v6H24V192M36 192h6v6H36V192M42 192h6v6H42V192M48 192h6v6H48V192M54 192h6v6H54V192M60 192h6v6H60V192M66 192h6v6H66V192M96 192h6v6H96V192M102 192h6v6H102V192M108 192h6v6H108V192M126 192h6v6H126V192M132 192h6v6H132V192M168 192h6v6H168V192M174 192h6v6H174V192M180 192h6v6H180V192M186 192h6v6H186V192M192 192h6v6H192V192M198 192h6v6H198V192M204 192h6v6H204V192M210 192h6v6H210V192M216 192h6v6H216V192M222 192h6v6H222V192M228 192h6v6H228V192M234 192h6v6H234V192M72 198h6v6H72V198M78 198h6v6H78V198M102 198h6v6H102V198M114 198h6v6H114V198M120 198h6v6H120V198M126 198h6v6H126V198M132 198h6v6H132V198M138 198h6v6H138V198M144 198h6v6H144V198M150 198h6v6H150V198M162 198h6v6H162V198M174 198h6v6H174V198M180 198h6v6H180V198M192 198h6v6H192V198M216 198h6v6H216V198M222 198h6v6H222V198M234 198h6v6H234V198M24 204h6v6H24V204M30 204h6v6H30V204M36 204h6v6H36V204M42 204h6v6H42V204M48 204h6v6H48V204M54 204h6v6H54V204M60 204h6v6H60V204M78 204h6v6H78V204M108 204h6v6H108V204M114 204h6v6H114V204M120 204h6v6H120V204M126 204h6v6H126V204M144 204h6v6H144V204M150 204h6v6H150V204M156 204h6v6H156V204M168 204h6v6H168V204M180 204h6v6H180V204M192 204h6v6H192V204M204 204h6v6H204V204M216 204h6v6H216V204M228 204h6v6H228V204M234 204h6v6H234V204M240 204h6v6H240V204M24 210h6v6H24V210M60 210h6v6H60V210M72 210h6v6H72V210M90 210h6v6H90V210M102 210h6v6H102V210M108 210h6v6H108V210M126 210h6v6H126V210M132 210h6v6H132V210M150 210h6v6H150V210M192 210h6v6H192V210M216 210h6v6H216V210M222 210h6v6H222V210M234 210h6v6H234V210M24 216h6v6H24V216M36 216h6v6H36V216M42 216h6v6H42V216M48 216h6v6H48V216M60 216h6v6H60V216M72 216h6v6H72V216M78 216h6v6H78V216M84 216h6v6H84V216M108 216h6v6H108V216M114 216h6v6H114V216M120 216h6v6H120V216M138 216h6v6H138V216M144 216h6v6H144V216M156 216h6v6H156V216M168 216h6v6H168V216M174 216h6v6H174V216M180 216h6v6H180V216M186 216h6v6H186V216M192 216h6v6H192V216M198 216h6v6H198V216M204 216h6v6H204V216M210 216h6v6H210V216M216 216h6v6H216V216M228 216h6v6H228V216M234 216h6v6H234V216M24 222h6v6H24V222M36 222h6v6H36V222M42 222h6v6H42V222M48 222h6v6H48V222M60 222h6v6H60V222M72 222h6v6H72V222M78 222h6v6H78V222M84 222h6v6H84V222M102 222h6v6H102V222M108 222h6v6H108V222M114 222h6v6H114V222M126 222h6v6H126V222M132 222h6v6H132V222M138 222h6v6H138V222M144 222h6v6H144V222M162 222h6v6H162V222M186 222h6v6H186V222M198 222h6v6H198V222M204 222h6v6H204V222M216 222h6v6H216V222M228 222h6v6H228V222M240 222h6v6H240V222M24 228h6v6H24V228M36 228h6v6H36V228M42 228h6v6H42V228M48 228h6v6H48V228M60 228h6v6H60V228M72 228h6v6H72V228M78 228h6v6H78V228M84 228h6v6H84V228M90 228h6v6H90V228M102 228h6v6H102V228M114 228h6v6H114V228M120 228h6v6H120V228M144 228h6v6H144V228M156 228h6v6H156V228M174 228h6v6H174V228M186 228h6v6H186V228M192 228h6v6H192V228M234 228h6v6H234V228M240 228h6v6H240V228M24 234h6v6H24V234M60 234h6v6H60V234M78 234h6v6H78V234M90 234h6v6H90V234M108 234h6v6H108V234M114 234h6v6H114V234M144 234h6v6H144V234M150 234h6v6H150V234M156 234h6v6H156V234M168 234h6v6H168V234M180 234h6v6H180V234M186 234h6v6H186V234M192 234h6v6H192V234M198 234h6v6H198V234M216 234h6v6H216V234M240 234h6v6H240V234M24 240h6v6H24V240M30 240h6v6H30V240M36 240h6v6H36V240M42 240h6v6H42V240M48 240h6v6H48V240M54 240h6v6H54V240M60 240h6v6H60V240M72 240h6v6H72V240M90 240h6v6H90V240M114 240h6v6H114V240M150 240h6v6H150V240M156 240h6v6H156V240M162 240h6v6H162V240M174 240h6v6H174V240M180 240h6v6H180V240M198 240h6v6H198V240M216 240h6v6H216V240M222 240h6v6H222V240M228 240h6v6H228V240M234 240h6v6H234V240M240 240h6v6H240V240"/></svg>
